<?xml version="1.0" encoding="UTF-8" standalone="no" ?>
<!DOCTYPE svg PUBLIC "-//W3C//DTD SVG 1.1//EN" "http://www.w3.org/Graphics/SVG/1.1/DTD/svg11.dtd">
<svg xmlns="http://www.w3.org/2000/svg" xmlns:xlink="http://www.w3.org/1999/xlink" version="1.1" width="1080" height="540" viewBox="0 0 1080 540" xml:space="preserve">
<desc>Created with Fabric.js 5.2.4</desc>
<defs>
</defs>
<g transform="matrix(1 0 0 1 540 270)" id="d1013cef-5123-4523-82a7-4f744d4f6853"  >
<rect style="stroke: none; stroke-width: 1; stroke-dasharray: none; stroke-linecap: butt; stroke-dashoffset: 0; stroke-linejoin: miter; stroke-miterlimit: 4; fill: rgb(255,255,255); fill-rule: nonzero; opacity: 1; visibility: hidden;" vector-effect="non-scaling-stroke"  x="-540" y="-270" rx="0" ry="0" width="1080" height="540" />
</g>
<g transform="matrix(Infinity NaN NaN Infinity 0 0)" id="9a1efa4e-e17f-4219-ba73-5a39c55a0360"  >
</g>
<g transform="matrix(5.24 0 0 5.24 535.71 261.42)"  >
<path style="stroke: none; stroke-width: 1; stroke-dasharray: none; stroke-linecap: butt; stroke-dashoffset: 0; stroke-linejoin: miter; stroke-miterlimit: 4; fill: rgb(255,255,255); fill-rule: evenodd; opacity: 1;" vector-effect="non-scaling-stroke"  transform=" translate(-96.38, -96.38)" d="M 5.669 81.215 L 5.669 93.86500000000001 L 42.672 93.86500000000001 C 46.973 93.86500000000001 52.467999999999996 89.888 52.467999999999996 83.30900000000001 C 52.467999999999996 80.66300000000001 53.48 78.93700000000001 50.37 75.43700000000001 L 45.637 69.82900000000001 C 42.925 67.299 45.961 67.299 48.239 67.299 L 63.861999999999995 67.299 L 63.861999999999995 93.86500000000001 L 76.252 93.86500000000001 L 76.252 67.299 L 92.951 67.299 L 92.951 55.922 L 38.877 55.922 C 32.298 55.922 29.081000000000003 62.239 29.262 65.52799999999999 C 29.444 68.817 30.049 72.95499999999998 35.516 77.92599999999999 C 40.503 82.45899999999999 33.047 81.21499999999999 32.298 81.21499999999999 L 5.669 81.21499999999999 z M 120.348 55.922 L 100.36 55.922 L 89.155 93.866 L 101.625 93.866 L 103.648 88.553 L 116.804 88.553 L 118.757 93.866 L 130.972 93.866 L 120.34800000000001 55.922 z M 106.432 79.44399999999999 L 110.733 65.52799999999999 L 114.78200000000001 79.44399999999999 L 106.43200000000002 79.44399999999999 z M 170.443 81.215 C 165.63600000000002 81.215 165.63600000000002 79.444 165.63600000000002 79.444 C 169.75500000000002 79.444 173.407 73.443 173.407 67.299 C 173.407 61.155000000000015 167.407 55.922000000000004 162.598 55.922000000000004 L 135.70700000000002 55.922000000000004 L 135.70700000000002 93.86600000000001 L 149.371 93.86600000000001 L 149.371 81.21600000000001 C 149.371 81.21600000000001 155.18900000000002 88.04700000000001 158.22500000000002 90.83000000000001 C 161.26200000000003 93.61300000000001 161.514 93.86600000000001 165.63500000000002 93.86600000000001 L 187.08400000000003 93.86600000000001 L 187.08400000000003 81.21600000000001 C 187.08600000000004 81.215 175.25000000000003 81.215 170.44300000000004 81.215 z M 158.04500000000002 72.36 L 149.37300000000002 72.36 L 149.37300000000002 65.528 L 158.04500000000002 65.528 C 162.02100000000002 65.528 162.709 72.36 158.04500000000002 72.36 z M 5.669 98.672 L 19.648 98.672 L 23.189999999999998 111.324 L 26.479 98.672 L 41.153999999999996 98.672 L 44.949 111.324 L 48.745 98.672 L 60.888999999999996 98.672 L 49.756 136.625 L 38.624 136.625 L 33.746 118.66 L 28.25 136.625 L 16.865 136.625 L 5.669 98.672 z M 89.578 98.891 L 69.59 98.891 L 58.386 136.834 L 70.855 136.834 L 72.879 131.522 L 86.036 131.522 L 87.989 136.834 L 100.205 136.834 L 89.578 98.891 z M 75.66300000000001 122.412 L 79.96400000000001 108.49600000000001 L 84.01200000000001 122.412 L 75.66300000000001 122.412 z M 170.695 110.059 C 168.42 110.059 165.939 110.325 168.652 112.854 L 173.386 118.463 C 176.495 121.963 176.445 123.422 176.445 126.07 C 176.445 132.648 169.93699999999998 136.625 165.636 136.625 L 135.74 136.826 C 131.621 136.826 131.369 136.57399999999998 128.33200000000002 133.791 C 125.29700000000003 131.008 119.47700000000002 124.176 119.47700000000002 124.176 L 119.47700000000002 136.826 L 105.81500000000001 136.826 L 105.81500000000001 98.883 L 132.70600000000002 98.883 C 137.513 98.883 143.51500000000001 104.11699999999999 143.51500000000001 110.25999999999999 C 143.51500000000001 116.40499999999999 139.86300000000003 122.40499999999999 135.74200000000002 122.40499999999999 C 135.74200000000002 122.40499999999999 137.55400000000003 124.22699999999999 140.59000000000003 124.22699999999999 C 143.62700000000004 124.22699999999999 155.31700000000004 124.23899999999999 155.31700000000004 124.23899999999999 C 156.06500000000003 124.23899999999999 163.52000000000004 125.48299999999999 158.53400000000005 120.94999999999999 C 153.06700000000004 115.97899999999998 152.46200000000005 111.84299999999999 152.28000000000006 108.55399999999999 C 152.09800000000007 105.26499999999999 154.94200000000006 98.67299999999999 161.51800000000006 98.67299999999999 L 187.08800000000005 98.67299999999999 L 187.08800000000005 110.05999999999999 L 170.69500000000005 110.05999999999999 L 170.69500000000005 110.05899999999998 z M 128.14999999999998 115.32 L 119.47599999999997 115.32 L 119.47599999999997 108.488 L 128.14999999999998 108.488 C 132.12699999999998 108.488 132.81399999999996 115.32 128.14999999999998 115.32 z" stroke-linecap="round" />
</g>
</svg>